<svg xmlns="http://www.w3.org/2000/svg" viewBox="0 0 1100 220" role="img" aria-label="PitMetric"><path fill="#E10600" d="M270 37H465L455 45H280Z"/><path fill="#E10600" d="M282 57H500L482 65H292Z"/><path fill="#E10600" d="M294 77H455L442 85H300Z"/><path fill="#0B0D10" d="M18 153 82 111c22-14 46-22 72-22h37l28-34h25l-20 34h34v30h-48c-13 0-25 4-35 12l-52 40H18Z"/><path fill="#E10600" d="M15 156h111l50-37c11-8 24-13 38-13h37v11h-36c-10 0-19 3-27 9l-57 42H15Z"/><path fill="#0B0D10" d="M28 151 88 115c20-12 42-18 65-18h35l-9 11h-26c-20 0-39 5-56 15l-46 28Z"/><circle cx="252" cy="128" r="57" fill="#0B0D10"/><circle cx="252" cy="128" r="46" fill="none" stroke="#E10600" stroke-width="8"/><circle cx="252" cy="128" r="33" fill="none" stroke="#F4F4F5" stroke-width="4"/><circle cx="252" cy="128" r="7" fill="#F4F4F5"/><path fill="#009246" d="M84 151h17l-12 11H69Z"/><path fill="#FFFFFF" d="M101 151h17l-12 11H89Z"/><path fill="#CE2B37" d="M118 151h18l-12 11h-18Z"/><text x="365" y="151" fill="#0B0D10" font-family="Arial,Helvetica,sans-serif" font-size="88" font-weight="900" font-style="italic" letter-spacing="-3">PITMETRIC</text></svg>